<?xml version="1.0" encoding="UTF-8"?>
<svg version="1.1" xmlns="http://www.w3.org/2000/svg" width="48" height="48">
<path d="M0 0 C2.73094144 2.73094144 1.54605683 10.62177612 1.6875 14.3125 C1.74744141 15.56224609 1.80738281 16.81199219 1.86914062 18.09960938 C1.91619141 19.30037109 1.96324219 20.50113281 2.01171875 21.73828125 C2.08072388 23.39404175 2.08072388 23.39404175 2.15112305 25.08325195 C1.99882587 28.02266127 1.44421022 29.49442053 0 32 C0 32.66 0 33.32 0 34 C1.32 34.33 2.64 34.66 4 35 C4 35.66 4 36.32 4 37 C3.34 37 2.68 37 2 37 C2.495 38.98 2.495 38.98 3 41 C2.38253906 40.86980469 1.76507813 40.73960938 1.12890625 40.60546875 C-5.35836709 39.54894174 -8.42369629 40.44437626 -13.9140625 43.90234375 C-17.27340925 45.67008989 -19.45542421 45.09559615 -23 44 C-24.29945762 43.30606284 -25.5908451 42.59686222 -26.875 41.875 C-31.38621348 39.41594638 -35.10204841 39.95691772 -40 41 C-40.144375 40.38125 -40.28875 39.7625 -40.4375 39.125 C-40.93152225 36.96741678 -40.93152225 36.96741678 -42 35 C-40.02 34.505 -40.02 34.505 -38 34 C-37.505 31.03 -37.505 31.03 -37 28 C-37.66 28 -38.32 28 -39 28 C-39.38133299 26.0085944 -39.71325582 24.00720923 -40 22 C-39.67 21.67 -39.34 21.34 -39 21 C-38.84344973 19.51361008 -38.74933057 18.02050873 -38.68359375 16.52734375 C-38.64169922 15.62822266 -38.59980469 14.72910156 -38.55664062 13.80273438 C-38.51732422 12.85720703 -38.47800781 11.91167969 -38.4375 10.9375 C-38.39431641 9.98810547 -38.35113281 9.03871094 -38.30664062 8.06054688 C-38.20020724 5.70718647 -38.09818992 3.35371646 -38 1 C-25.14781894 -4.01017228 -13.25360512 -4.41025136 0 0 Z " fill="#4BACE0" transform="translate(43,3)"/>
<path d="M0 0 C0.80373047 -0.00773438 1.60746094 -0.01546875 2.43554688 -0.0234375 C8.12054363 -0.00514306 13.17624823 0.85698551 18.6875 2.25 C18.6875 8.19 18.6875 14.13 18.6875 20.25 C15.0575 19.59 11.4275 18.93 7.6875 18.25 C7.81125 20.1371875 7.81125 20.1371875 7.9375 22.0625 C8.078125 24.20703125 8.078125 24.20703125 7.6875 26.25 C5.38071649 28.75785907 4.03871758 29.22039545 0.62890625 29.5078125 C-0.48613281 29.46398437 -1.60117187 29.42015625 -2.75 29.375 C-6.80830894 29.23392321 -10.35737485 29.28894155 -14.3125 30.25 C-14.3125 28.27 -14.3125 26.29 -14.3125 24.25 C-12.9925 24.58 -11.6725 24.91 -10.3125 25.25 C-10.3125 24.59 -10.3125 23.93 -10.3125 23.25 C-9.6525 22.92 -8.9925 22.59 -8.3125 22.25 C-9.281875 22.270625 -10.25125 22.29125 -11.25 22.3125 C-14.3125 22.25 -14.3125 22.25 -15.3125 21.25 C-15.39901611 19.83429877 -15.41954904 18.414405 -15.41015625 16.99609375 C-15.40693359 16.14208984 -15.40371094 15.28808594 -15.40039062 14.40820312 C-15.39201172 13.51037109 -15.38363281 12.61253906 -15.375 11.6875 C-15.37048828 10.78580078 -15.36597656 9.88410156 -15.36132812 8.95507812 C-15.34950225 6.71998686 -15.3330222 4.48502563 -15.3125 2.25 C-10.09545876 0.12609953 -5.53498839 -0.05250582 0 0 Z " fill="#EE7332" transform="translate(22.3125,2.75)"/>
<path d="M0 0 C1.69141656 0.08963062 3.37959602 0.24577676 5.0625 0.4375 C7.5065625 0.7159375 7.5065625 0.7159375 10 1 C10 4.3 10 7.6 10 11 C10.99 10.67 11.98 10.34 13 10 C12.67 9.67 12.34 9.34 12 9 C11.85884839 6.32941149 11.95752893 3.67567762 12 1 C16.75 -0.125 16.75 -0.125 19 1 C19 6.94 19 12.88 19 19 C15.37 18.34 11.74 17.68 8 17 C8 17.99 8 18.98 8 20 C7.34 20 6.68 20 6 20 C6 19.34 6 18.68 6 18 C5.34 18 4.68 18 4 18 C4 18.66 4 19.32 4 20 C2.35 20 0.7 20 -1 20 C-0.67 18.68 -0.34 17.36 0 16 C0.639375 15.87625 1.27875 15.7525 1.9375 15.625 C2.618125 15.41875 3.29875 15.2125 4 15 C4.33 14.34 4.66 13.68 5 13 C3.35 13 1.7 13 0 13 C-0.33 11.68 -0.66 10.36 -1 9 C1.475 9.495 1.475 9.495 4 10 C4 9.34 4 8.68 4 8 C2.35 7.67 0.7 7.34 -1 7 C-1.04254356 5.00045254 -1.04080783 2.99958364 -1 1 C-0.67 0.67 -0.34 0.34 0 0 Z " fill="#D36B3B" transform="translate(22,4)"/>
<path d="M0 0 C5.8022175 -0.36263859 9.63999211 0.74315457 15 3 C15 5.31 15 7.62 15 10 C14.01 9.67 13.02 9.34 12 9 C12 8.34 12 7.68 12 7 C11.34 7 10.68 7 10 7 C9.67 9.31 9.34 11.62 9 14 C-0.57 14 -10.14 14 -20 14 C-19.67 13.34 -19.34 12.68 -19 12 C-16.5251257 11.57472327 -14.11820688 11.25024753 -11.625 11 C-6.02790177 10.46843774 -6.02790177 10.46843774 -1 8 C-0.42251197 6.03638136 -0.42251197 6.03638136 -0.3125 3.875 C-0.209375 2.59625 -0.10625 1.3175 0 0 Z " fill="#407BA6" transform="translate(30,21)"/>
<path d="M0 0 C1 1 1 1 1.11352539 2.94946289 C1.10828857 3.7821167 1.10305176 4.61477051 1.09765625 5.47265625 C1.09443359 6.37177734 1.09121094 7.27089844 1.08789062 8.19726562 C1.07532227 9.61555664 1.07532227 9.61555664 1.0625 11.0625 C1.05798828 12.01189453 1.05347656 12.96128906 1.04882812 13.93945312 C1.0370011 16.29303065 1.02052025 18.64648477 1 21 C0.01 21 -0.98 21 -2 21 C-2 14.73 -2 8.46 -2 2 C-8.94792186 1.17138285 -8.94792186 1.17138285 -15.82421875 0.8671875 C-16.62537109 0.86589844 -17.42652344 0.86460938 -18.25195312 0.86328125 C-19.45754883 0.86908203 -19.45754883 0.86908203 -20.6875 0.875 C-21.50283203 0.87113281 -22.31816406 0.86726562 -23.15820312 0.86328125 C-23.95548828 0.86457031 -24.75277344 0.86585937 -25.57421875 0.8671875 C-26.28151123 0.86831543 -26.98880371 0.86944336 -27.7175293 0.87060547 C-30.49943526 1.02831326 -33.25153895 1.54192316 -36 2 C-36 8.27 -36 14.54 -36 21 C-36.66 21 -37.32 21 -38 21 C-38 14.4 -38 7.8 -38 1 C-24.89938648 -3.91273007 -13.42380478 -4.46688676 0 0 Z " fill="#7DC0E2" transform="translate(43,3)"/>
<path d="M0 0 C8.58 0 17.16 0 26 0 C25 4 25 4 23.1796875 5.51953125 C19.45222214 7.6107025 16.82705484 8.97046233 12.5 9.125 C7.95574089 7.66434529 4.05503211 5.49186781 0 3 C0 2.01 0 1.02 0 0 Z " fill="#42ABE1" transform="translate(11,39)"/>
<path d="M0 0 C0.66 0 1.32 0 2 0 C2 1.32 2 2.64 2 4 C2.54785156 3.855625 3.09570312 3.71125 3.66015625 3.5625 C14.70009353 0.97753908 26.03535522 1.11049361 37 4 C37.33 2.68 37.66 1.36 38 0 C38 0.66 38 1.32 38 2 C39.32 2.33 40.64 2.66 42 3 C42 3.66 42 4.32 42 5 C41.34 5 40.68 5 40 5 C40.495 6.98 40.495 6.98 41 9 C36.545 8.01 36.545 8.01 32 7 C32 6.01 32 5.02 32 4 C23.42 4 14.84 4 6 4 C6 4.99 6 5.98 6 7 C3.36 7.66 0.72 8.32 -2 9 C-2.33 7.68 -2.66 6.36 -3 5 C-3.33 4.34 -3.66 3.68 -4 3 C-2.68 2.67 -1.36 2.34 0 2 C0 1.34 0 0.68 0 0 Z " fill="#3074A5" transform="translate(5,35)"/>
<path d="M0 0 C0.33 0.66 0.66 1.32 1 2 C0.67 2.66 0.34 3.32 0 4 C0.99 3.67 1.98 3.34 3 3 C3.66 3.33 4.32 3.66 5 4 C5 3.34 5 2.68 5 2 C5.66 2 6.32 2 7 2 C7 2.66 7 3.32 7 4 C7.66 4 8.32 4 9 4 C9.31898502 6.95061143 9.4433581 8.44098326 7.5625 10.8125 C3.75630517 12.57634638 0.12821704 12.23816637 -4 12 C-3.34 11.67 -2.68 11.34 -2 11 C-1.84850702 7.37114676 -1.84850702 7.37114676 -3 4 C-2.34 4 -1.68 4 -1 4 C-1.33 3.01 -1.66 2.02 -2 1 C-1.34 0.67 -0.68 0.34 0 0 Z " fill="#AA532F" transform="translate(21,20)"/>
<path d="M0 0 C0.99 0.33 1.98 0.66 3 1 C3 5.29 3 9.58 3 14 C0.03 13.67 -2.94 13.34 -6 13 C-6 9.04 -6 5.08 -6 1 C-5.34 1 -4.68 1 -4 1 C-4 4.3 -4 7.6 -4 11 C-3.01 10.67 -2.02 10.34 -1 10 C-1.33 9.67 -1.66 9.34 -2 9 C-2.14115161 6.32941149 -2.04247107 3.67567762 -2 1 C-1.34 0.67 -0.68 0.34 0 0 Z " fill="#F37431" transform="translate(36,4)"/>
<path d="M0 0 C2.31 0 4.62 0 7 0 C7 3.63 7 7.26 7 11 C4.69 11.66 2.38 12.32 0 13 C0 8.71 0 4.42 0 0 Z " fill="#F7C7AC" transform="translate(13,5)"/>
<path d="M0 0 C2.88169639 1.13521373 5.65320753 2.32066551 8.4375 3.6875 C13.10234724 5.40612793 15.66160565 5.05248965 20.15234375 3.03125 C22.12576406 2.06014686 24.06950676 1.05344174 26 0 C25.64290225 2.68975242 25.29758271 3.75158868 23.1796875 5.51953125 C19.45222214 7.6107025 16.82705484 8.97046233 12.5 9.125 C7.95574089 7.66434529 4.05503211 5.49186781 0 3 C0 2.01 0 1.02 0 0 Z " fill="#5FB1DE" transform="translate(11,39)"/>
<path d="M0 0 C1.4540625 0.0309375 1.4540625 0.0309375 2.9375 0.0625 C2.9375 1.3825 2.9375 2.7025 2.9375 4.0625 C1.6175 3.7325 0.2975 3.4025 -1.0625 3.0625 C-1.0625 3.7225 -1.0625 4.3825 -1.0625 5.0625 C0.2575 5.0625 1.5775 5.0625 2.9375 5.0625 C2.9375 7.7025 2.9375 10.3425 2.9375 13.0625 C0.9575 13.0625 -1.0225 13.0625 -3.0625 13.0625 C-3.3925 11.7425 -3.7225 10.4225 -4.0625 9.0625 C-1.5875 9.5575 -1.5875 9.5575 0.9375 10.0625 C0.9375 9.4025 0.9375 8.7425 0.9375 8.0625 C-0.7125 7.7325 -2.3625 7.4025 -4.0625 7.0625 C-4.10504356 5.06295254 -4.10330783 3.06208364 -4.0625 1.0625 C-3.0625 0.0625 -3.0625 0.0625 0 0 Z " fill="#F7D9C5" transform="translate(25.0625,3.9375)"/>
<path d="M0 0 C1.65 0.33 3.3 0.66 5 1 C5 1.99 5 2.98 5 4 C5.66 3.34 6.32 2.68 7 2 C7.042721 3.66611905 7.04063832 5.33382885 7 7 C6 8 6 8 3.05859375 8.09765625 C1.26615234 8.08025391 1.26615234 8.08025391 -0.5625 8.0625 C-2.35880859 8.04896484 -2.35880859 8.04896484 -4.19140625 8.03515625 C-5.11824219 8.02355469 -6.04507812 8.01195312 -7 8 C-6.20207031 7.38640625 -5.40414063 6.7728125 -4.58203125 6.140625 C-2.1458365 4.1209053 -1.13359743 2.88552072 0 0 Z " fill="#6BB8DE" transform="translate(31,25)"/>
<path d="M0 0 C0.66 0 1.32 0 2 0 C3.15299221 4.35574833 2.80558057 6.16651657 2 11 C-5.425 10.01 -5.425 10.01 -13 9 C-13 8.67 -13 8.34 -13 8 C-7.06 7.505 -7.06 7.505 -1 7 C-0.67 4.69 -0.34 2.38 0 0 Z " fill="#75BBE0" transform="translate(40,28)"/>
<path d="M0 0 C0.99 0.99 1.98 1.98 3 3 C0.03 2.67 -2.94 2.34 -6 2 C-6 2.99 -6 3.98 -6 5 C-6.66 5 -7.32 5 -8 5 C-8 4.34 -8 3.68 -8 3 C-8.66 3 -9.32 3 -10 3 C-10 3.66 -10 4.32 -10 5 C-11.65 5 -13.3 5 -15 5 C-14.8125 3.125 -14.8125 3.125 -14 1 C-9.7784943 -1.77036311 -4.71477946 -1.31554708 0 0 Z " fill="#DAE6EE" transform="translate(36,19)"/>
<path d="M0 0 C0.33 0.66 0.66 1.32 1 2 C3.02463255 2.65213292 3.02463255 2.65213292 5 3 C5 3.66 5 4.32 5 5 C4.34 5 3.68 5 3 5 C3.33 6.32 3.66 7.64 4 9 C-0.455 8.01 -0.455 8.01 -5 7 C-5 5.68 -5 4.36 -5 3 C-2.525 3.495 -2.525 3.495 0 4 C0 2.68 0 1.36 0 0 Z " fill="#3E6486" transform="translate(42,35)"/>
<path d="M0 0 C1.37478516 0.01740234 1.37478516 0.01740234 2.77734375 0.03515625 C3.69644531 0.04417969 4.61554687 0.05320312 5.5625 0.0625 C6.27277344 0.07410156 6.98304687 0.08570312 7.71484375 0.09765625 C8.04484375 0.75765625 8.37484375 1.41765625 8.71484375 2.09765625 C7.72484375 2.59265625 7.72484375 2.59265625 6.71484375 3.09765625 C6.38484375 3.75765625 6.05484375 4.41765625 5.71484375 5.09765625 C4.39484375 4.76765625 3.07484375 4.43765625 1.71484375 4.09765625 C1.38484375 5.74765625 1.05484375 7.39765625 0.71484375 9.09765625 C0.38484375 8.43765625 0.05484375 7.77765625 -0.28515625 7.09765625 C-0.94515625 7.09765625 -1.60515625 7.09765625 -2.28515625 7.09765625 C-2.66648924 5.10625065 -2.99841207 3.10486548 -3.28515625 1.09765625 C-2.28515625 0.09765625 -2.28515625 0.09765625 0 0 Z " fill="#49799F" transform="translate(6.28515625,23.90234375)"/>
<path d="M0 0 C0.99 0.33 1.98 0.66 3 1 C2.67 1.33 2.34 1.66 2 2 C1.84379445 3.41327947 1.74943827 4.8335459 1.68359375 6.25390625 C1.64169922 7.10791016 1.59980469 7.96191406 1.55664062 8.84179688 C1.49766602 10.18854492 1.49766602 10.18854492 1.4375 11.5625 C1.39431641 12.46419922 1.35113281 13.36589844 1.30664062 14.29492188 C1.20021858 16.52978485 1.09820012 18.76476308 1 21 C0.34 21 -0.32 21 -1 21 C-1.02888146 17.68751813 -1.04675799 14.37506833 -1.0625 11.0625 C-1.07087891 10.11697266 -1.07925781 9.17144531 -1.08789062 8.19726562 C-1.09111328 7.29814453 -1.09433594 6.39902344 -1.09765625 5.47265625 C-1.10289307 4.64000244 -1.10812988 3.80734863 -1.11352539 2.94946289 C-1 1 -1 1 0 0 Z " fill="#53B5E9" transform="translate(6,3)"/>
<path d="M0 0 C1.32 0 2.64 0 4 0 C4 5.94 4 11.88 4 18 C2.68 16.68 1.36 15.36 0 14 C0.66 13.67 1.32 13.34 2 13 C2 9.04 2 5.08 2 1 C1.34 0.67 0.68 0.34 0 0 Z " fill="#F26F2A" transform="translate(37,5)"/>
<path d="M0 0 C2.88169639 1.13521373 5.65320753 2.32066551 8.4375 3.6875 C14.19116776 5.80727233 18.40292086 3.99895684 24 2 C20.89958499 5.58995422 17.74108204 6.81477851 13.0625 7.3125 C9.46801168 6.94571548 7.15593149 5.71518016 4 4 C1.76474965 3.31363375 1.76474965 3.31363375 0 3 C0 2.01 0 1.02 0 0 Z " fill="#ABD9ED" transform="translate(11,39)"/>
<path d="M0 0 C6.52307692 -0.36923077 6.52307692 -0.36923077 8.9375 1.5 C9.288125 1.995 9.63875 2.49 10 3 C9.67 3.66 9.34 4.32 9 5 C8.401875 4.814375 7.80375 4.62875 7.1875 4.4375 C4.83591238 3.77906313 4.83591238 3.77906313 2 5 C1.34 5.66 0.68 6.32 0 7 C0 4.69 0 2.38 0 0 Z " fill="#2C3A5E" transform="translate(30,21)"/>
<path d="M0 0 C1.4540625 0.0309375 1.4540625 0.0309375 2.9375 0.0625 C2.9375 1.3825 2.9375 2.7025 2.9375 4.0625 C1.6175 3.7325 0.2975 3.4025 -1.0625 3.0625 C-1.0625 4.0525 -1.0625 5.0425 -1.0625 6.0625 C-0.0725 6.3925 0.9175 6.7225 1.9375 7.0625 C-0.0425 7.0625 -2.0225 7.0625 -4.0625 7.0625 C-4.10504356 5.06295254 -4.10330783 3.06208364 -4.0625 1.0625 C-3.0625 0.0625 -3.0625 0.0625 0 0 Z " fill="#F9E4D6" transform="translate(25.0625,3.9375)"/>
<path d="M0 0 C0.33 0.66 0.66 1.32 1 2 C0.67 2.66 0.34 3.32 0 4 C0.66 4 1.32 4 2 4 C2 4.99 2 5.98 2 7 C1.34 7 0.68 7 0 7 C0 7.99 0 8.98 0 10 C1.65 10.33 3.3 10.66 5 11 C5 11.33 5 11.66 5 12 C2.03 12 -0.94 12 -4 12 C-3.34 11.67 -2.68 11.34 -2 11 C-1.84850702 7.37114676 -1.84850702 7.37114676 -3 4 C-2.34 4 -1.68 4 -1 4 C-1.33 3.01 -1.66 2.02 -2 1 C-1.34 0.67 -0.68 0.34 0 0 Z " fill="#92503E" transform="translate(21,20)"/>
<path d="M0 0 C0.66 0 1.32 0 2 0 C1.67 1.98 1.34 3.96 1 6 C1.99 6.33 2.98 6.66 4 7 C2.02 7.66 0.04 8.32 -2 9 C-2.144375 8.38125 -2.28875 7.7625 -2.4375 7.125 C-2.93152225 4.96741678 -2.93152225 4.96741678 -4 3 C-2.68 2.67 -1.36 2.34 0 2 C0 1.34 0 0.68 0 0 Z " fill="#447195" transform="translate(5,35)"/>
<path d="M0 0 C0.66 0 1.32 0 2 0 C2 3.3 2 6.6 2 10 C3.32 10 4.64 10 6 10 C6 10.66 6 11.32 6 12 C4.02 12 2.04 12 0 12 C0 8.04 0 4.08 0 0 Z " fill="#FDFCFA" transform="translate(30,5)"/>
<path d="M0 0 C2.97 0.495 2.97 0.495 6 1 C6 1.66 6 2.32 6 3 C6.99 3.33 7.98 3.66 9 4 C6.03 4.66 3.06 5.32 0 6 C0 4.02 0 2.04 0 0 Z " fill="#A15E44" transform="translate(8,27)"/>
<path d="M0 0 C-0.33 1.65 -0.66 3.3 -1 5 C-3.375 4.75 -3.375 4.75 -6 4 C-7.3125 1.9375 -7.3125 1.9375 -8 0 C-4.94736336 -0.98120464 -3.05263664 -0.98120464 0 0 Z " fill="#F56F25" transform="translate(20,26)"/>
<path d="M0 0 C1.65 0 3.3 0 5 0 C5 3.63 5 7.26 5 11 C3.68 11.33 2.36 11.66 1 12 C1.33 11.34 1.66 10.68 2 10 C2.22467831 8.46331135 2.40796805 6.92031946 2.5625 5.375 C2.64628906 4.55773437 2.73007812 3.74046875 2.81640625 2.8984375 C2.87699219 2.27195312 2.93757813 1.64546875 3 1 C2.01 0.67 1.02 0.34 0 0 Z " fill="#FBF2EB" transform="translate(15,5)"/>
<path d="M0 0 C0.33 0 0.66 0 1 0 C1 1.65 1 3.3 1 5 C1.70125 4.649375 2.4025 4.29875 3.125 3.9375 C6.50268586 2.8360807 8.58080593 3.20483859 12 4 C12 4.33 12 4.66 12 5 C10.7625 5.12375 9.525 5.2475 8.25 5.375 C5.1237803 5.75746305 2.71120763 6.30549523 0 8 C-1.09658936 4.71023192 -0.79953138 3.28696233 0 0 Z " fill="#88BAD4" transform="translate(7,28)"/>
<path d="M0 0 C4.95 0 9.9 0 15 0 C15 0.66 15 1.32 15 2 C10.66666667 2 6.33333333 2 2 2 C1.34 1.34 0.68 0.68 0 0 Z " fill="#F9691D" transform="translate(17,3)"/>
<path d="M0 0 C4.95 0 9.9 0 15 0 C15 0.99 15 1.98 15 3 C7.575 2.01 7.575 2.01 0 1 C0 0.67 0 0.34 0 0 Z " fill="#62BAE7" transform="translate(27,36)"/>
<path d="M0 0 C0 0.66 0 1.32 0 2 C0.66 2.33 1.32 2.66 2 3 C-0.64 3.33 -3.28 3.66 -6 4 C-6 3.01 -6 2.02 -6 1 C-4 0 -4 0 0 0 Z " fill="#5CB5E4" transform="translate(13,35)"/>
<path d="M0 0 C1.32 0 2.64 0 4 0 C4 1.32 4 2.64 4 4 C2.35 4 0.7 4 -1 4 C-0.67 2.68 -0.34 1.36 0 0 Z " fill="#E0EDF3" transform="translate(22,20)"/>
</svg>
